# xmcd
#
# Track frame offsets:
#	150
#	13001
#	25581
#	37115
#	47666
#	71529
#	83457
#	93204
#	104360
#	114407
#	124370
#	135685
#	148410
#
# Disc length: 2121 seconds
#
# Revision: 1
# Processed by: cddbd v1.4b42PL1 Copyright (c) Steve Scherf et al.
# Submitted via: audiograbber 1.80.04
#
DISCID=ad08470d
DTITLE=Rosie Flores - Rockabilly Filly (Reg Cut)
DYEAR=1995
DGENRE=Country
TTITLE0=Crazy Mixed Emotions
TTITLE1=Blues Keep Callin'
TTITLE2=His Rockin' Little Angel
TTITLE3=Wrong Side Of His Heart
TTITLE4=Boxcars
TTITLE5=Poor Girl's Town
TTITLE6=Hard Times
TTITLE7=Stranger
TTITLE8=Walking Dream
TTITLE9=You Tear Me Up
TTITLE10=Bop Street
TTITLE11=Rock Your Baby
TTITLE12=Don't Let Our Love Die
EXTD=
EXTT0=
EXTT1=
EXTT2=
EXTT3=
EXTT4=
EXTT5=
EXTT6=
EXTT7=
EXTT8=
EXTT9=
EXTT10=
EXTT11=
EXTT12=
PLAYORDER=
